<svg viewBox="0 0 512 512" fill="none" xmlns="http://www.w3.org/2000/svg">
    <defs>
        <linearGradient id="iconGrad" x1="0" y1="0" x2="1" y2="1">
            <stop offset="0%" stop-color="#4FC3F7" />
            <stop offset="100%" stop-color="#1A237E" />
        </linearGradient>
    </defs>

    <rect x="16" y="16" width="480" height="480" rx="96" fill="url(#iconGrad)" />

    <path d="M392 206 A145 145 0 0 1 206 392" fill="none" stroke="white" stroke-width="28" stroke-linecap="round" />
    <path d="M0 0 L-32 -20 L-32 20 Z" transform="translate(163, 367) rotate(220)" fill="white" />

    <path d="M119 305 A145 145 0 0 1 305 119" fill="none" stroke="#E3F2FD" stroke-width="28" stroke-linecap="round" />
    <path d="M0 0 L-32 -20 L-32 20 Z" transform="translate(349, 145) rotate(40)" fill="#E3F2FD" />

    <g transform="translate(256, 256) scale(1.35) translate(-256, -256)">
        <rect x="196" y="188" width="120" height="136" rx="14" fill="white" />
        <rect x="214" y="206" width="84" height="12" rx="6" fill="#1A237E" />
        <rect x="214" y="232" width="64" height="8" rx="4" fill="#90CAF9" />
        <rect x="214" y="252" width="84" height="8" rx="4" fill="#90CAF9" />
        <rect x="214" y="272" width="56" height="8" rx="4" fill="#90CAF9" />
        <path d="M206 294 L236 264 L256 284 L286 244 L306 224" fill="none" stroke="#1A237E" stroke-width="12" stroke-linecap="round" stroke-linejoin="round" />
    </g>
</svg>
